<svg width="32" height="32" viewBox="0 0 32 32" fill="none" xmlns="http://www.w3.org/2000/svg">
  <rect width="32" height="32" rx="7" fill="#0A0F1A"/>
  <path d="M8 8.5C8 7.67 8.67 7 9.5 7H22.5C23.33 7 24 7.67 24 8.5V23.5C24 24.33 23.33 25 22.5 25H9.5C8.67 25 8 24.33 8 23.5V8.5Z" fill="#0B1325" stroke="rgba(255,255,255,0.14)"/>
  <path d="M10 12.25C10 11.56 10.56 11 11.25 11H20.75C21.44 11 22 11.56 22 12.25V14.25C22 14.94 21.44 15.5 20.75 15.5H11.25C10.56 15.5 10 14.94 10 14.25V12.25Z" fill="#32F08C"/>
  <path d="M10 18.25C10 17.56 10.56 17 11.25 17H15.25C15.94 17 16.5 17.56 16.5 18.25V20.25C16.5 20.94 15.94 21.5 15.25 21.5H11.25C10.56 21.5 10 20.94 10 20.25V18.25Z" fill="#5FE7FF"/>
  <path d="M17.5 18.25C17.5 17.56 18.06 17 18.75 17H20.75C21.44 17 22 17.56 22 18.25V20.25C22 20.94 21.44 21.5 20.75 21.5H18.75C18.06 21.5 17.5 20.94 17.5 20.25V18.25Z" fill="#FFCC66"/>
</svg>

